/* XPM */
static char *b235dddc20aa4738d9845e831ce68a01AxR4VKKjM76dxBrw[] = {
/* columns rows colors chars-per-pixel */
"32 31 10 1 ",
"  c None",
". c black",
"X c #020000",
"o c #020200",
"O c #020202",
"+ c #676633",
"@ c #966C6C",
"# c #A2A947",
"$ c #CDDF6C",
"% c #EAFB91",
/* pixels */
"               X                ",
"              X@X               ",
"              X@X               ",
"             X%@#X              ",
"            X%%#$#X             ",
"           X%%%$$##X            ",
"           X%%$$$$##X           ",
"           X%$$$$$$#X           ",
"           X$$%%$$$#X           ",
"          X$$%%$$$$$#X          ",
"          X$%%$%$$$$#X          ",
"          X%%$%$$$$$#X          ",
"          X$$$$$$$$##X          ",
"         X$$$$$$$$$##+X         ",
"        X$$$$$$$$$####+X        ",
"        X$$$$$$$$$#$##+X        ",
"       X$$$$$$$$##$$$##+X       ",
"       X$$%$%%%$$$$$###+X       ",
"      X$$%%%%%$$$$$$$$##+X      ",
"      X$$$%%%$$$$$$$$$$#+X      ",
"      X$$%%%$$$$$$$$$$##+X      ",
"      X#%%$$$$$$$$$$$$#++X      ",
"      X#$$$$$$$$$$$$$##++X      ",
"      X+#$$$$$$$$$$$##+++X      ",
"       X+#$$$$$$$####+++X       ",
"        X+##$$###++++++X        ",
"         X++##++++++++X         ",
"          XX++++++++XX          ",
"            XXXXXXXX            ",
"                                ",
"                                "
};
