/* XPM */
static char *f17860e01aa54dcdba2af2337e914946OlUVNvZ4N8ImnvWd[] = {
/* columns rows colors chars-per-pixel */
"32 32 118 2 ",
"   c None",
".  c #170B04",
"X  c #1F1209",
"o  c #161616",
"O  c #1C1C1C",
"+  c #341704",
"@  c #391A04",
"#  c #271B13",
"$  c #2E1D11",
"%  c #3F200A",
"&  c #28211C",
"*  c #322213",
"=  c #3F2616",
"-  c #32251D",
";  c #3B281B",
":  c #232323",
">  c #252729",
",  c #27292A",
"<  c #2C2C2C",
"1  c #362D25",
"2  c #3B2F27",
"3  c #242B31",
"4  c #323232",
"5  c #363739",
"6  c #37393B",
"7  c #3B3C3C",
"8  c #41220B",
"9  c #4F280D",
"0  c #542B0C",
"q  c #5E320F",
"w  c #432713",
"e  c #462914",
"r  c #4C2810",
"t  c #462C19",
"y  c #4A321F",
"u  c #5D3312",
"i  c #52331A",
"p  c #652E06",
"a  c #63300C",
"s  c #6B320A",
"d  c #74380D",
"f  c #7E3B0C",
"g  c #613513",
"h  c #6B3710",
"j  c #673917",
"k  c #6B3F1B",
"l  c #4D3523",
"z  c #46372A",
"x  c #5A3B22",
"c  c #7C4115",
"v  c #74441C",
"b  c #7A431B",
"n  c #42403D",
"m  c #7D4D25",
"M  c #3D3E41",
"N  c #3E4143",
"B  c #444444",
"V  c #434648",
"C  c #44484A",
"Z  c #4A4C4D",
"A  c #4D4F51",
"S  c #4E5254",
"D  c #525455",
"F  c #525659",
"G  c #575A5C",
"H  c #5B5B5B",
"J  c #5A5E61",
"K  c #5D6265",
"L  c #616263",
"P  c #686868",
"I  c #6E7173",
"U  c #717272",
"Y  c #833E0E",
"T  c #8A410D",
"R  c #91460F",
"E  c #834214",
"W  c #8C4410",
"Q  c #8E4B19",
"!  c #914610",
"~  c #934A15",
"^  c #904D1B",
"/  c #944D18",
"(  c #964F19",
")  c #944E1A",
"_  c #954E1A",
"`  c #95501C",
"'  c #95511C",
"]  c #875226",
"[  c #895124",
"{  c #8E5524",
"}  c #8E5525",
"|  c #965927",
" . c #975A28",
".. c #975B2A",
"X. c #975C2B",
"o. c #985B29",
"O. c #9A5C28",
"+. c #985C2B",
"@. c #9A5D2A",
"#. c #9A5D2B",
"$. c #9B5D2B",
"%. c #9C5D29",
"&. c #9C5D2A",
"*. c #9C5E2A",
"=. c #985D2C",
"-. c #995D2C",
";. c #9B5F2C",
":. c #9D5F2C",
">. c #9C5F2D",
",. c #9D602D",
"<. c #9F612E",
"1. c #A0612D",
"2. c #A1622D",
"3. c #A2622E",
"4. c #A3632E",
"5. c #A6632D",
"6. c #A7642E",
"7. c #A7652F",
/* pixels */
"                            > < 4 :                             ",
"                      O o Z H C Z D H : O                       ",
"                    7 L G 7 N > O M 7 A P 7                     ",
"                  < Z L C * k p v h + n G C B                   ",
"                : L C z a ^ <.T 1.` ( m @ 6 U <                 ",
"                B I 2 } ( ^ =.T =.^ Q %.T = S >                 ",
"                < V 0 %.Q ^ =.T =.Q Q ..T v 4 D B               ",
"              < D X f $.Q ^ =.T =.Q Q ..T $.l L 6               ",
"              4 J 8 R ..Q ^ =.T =.Q Q ..T 1.q Z C               ",
"              O < % ! ..Q ^ =.T =.Q Q ..T 1.u : :               ",
"              > C 8 R ..Q ^ =.T =.Q Q ..T 1.u 7 4               ",
"              4 K 8 R ..Q ^ =.T =.Q Q X.f } 0 S C               ",
"              O 4 % ! ..Q ^ =.T =.Q Q | ; 4 < < >               ",
"              : N 8 R ..Q ^ =.T =.Q Q ..w 1 & 6 <               ",
"              4 K 8 R ..Q ^ =.T =.Q Q ..Y $.0 S C               ",
"              : M 8 ! $.^ ^ =.T =.Q Q ..T 1.u 4 <               ",
"              O 5 8 W ] E Q =.T =.Q Q ..T 1.u < <               ",
"              4 K 8 E X . b =.T =.Q Q ..T 1.u S C               ",
"              > V 8 d x u j <.T =.Q Q ..T 1.u 6 4               ",
"              O < 8 Y i r b :.T =.Q Q ..T 1.u > :               ",
"              4 K 8 ! [ c ` =.T =.Q Q ..T 1.u S C               ",
"              < Z 8 R $.^ ^ =.T =.Q Q ..T 1.u N 5               ",
"              O , % ! ..Q ^ =.T =.Q Q ..T 1.u : O               ",
"              4 J 8 R ..Q ^ =.T =.Q Q ..T 1.u A C               ",
"              < D 8 R ..Q ^ =.T =.Q Q ..T 6.g V 7               ",
"              O > % ! ..Q ^ =.T =.Q Q $.s v 8 : O               ",
"              < G 8 R ..Q ^ =.T =.Q Q | - 3 > Z B               ",
"              < G 8 R ..Q ^ =.T =.Q Q o.9 y $ Z B               ",
"              O , % ! ..Q ^ =.T =.Q Q ..T 6.g : O               ",
"              < F 8 R ..Q ^ =.T =.Q Q ..T 1.u C 7               ",
"              < J 8 R %.~ ( :.T :.( / %.T 5.q Z B               ",
"              > 4 # e y t t y w y t t y w l * , >               "
};
