/* XPM */
static char *_978250100eb42ebb844abf0cc01fd76xwz52hiwv6ZYmanl[] = {
/* columns rows colors chars-per-pixel */
"32 32 8 1 ",
"  c None",
". c #04193F",
"X c #03396B",
"o c #C3242F",
"O c #E7333B",
"+ c #0696DB",
"@ c #0FEFFB",
"# c #FCFEFE",
/* pixels */
"                                ",
"                                ",
"                                ",
"                                ",
"                                ",
"                                ",
"             .....              ",
"           ..@@@++..            ",
"          .@@@@@@+XX.           ",
"         .@@@@@@@..XX.          ",
"        .@@@@@@@@..XXX.         ",
"        .@@@...@@++XX..         ",
"       .@@@..##.@+++..#.        ",
"       .@@@..##.@+++..#.        ",
"       .@@@.....@+++....        ",
"       .@@@@...@++++X...        ",
"       .@@@@@@@@++++XXX.        ",
"        .@@@@@@++++XXX.         ",
"        .@@@@++++..XXX.         ",
"         .+++++++++XX.          ",
"         .oo++++++XXX.          ",
"         .OOooo+XXXXo.          ",
"        .X.OOOOoooooO.          ",
"        .+X..OOOOOOOO.          ",
"       .+++XX.OOOOOO.X.         ",
"       .++++XX..OOOOXX.         ",
"       .+++X++XX..O.XX.         ",
"        .XX+++++XX.X..          ",
"         .+++++XXXXX.           ",
"         .++++..XXXX.           ",
"         .++++..XXX.            ",
"         .+++. .XXX.            "
};
