/* XPM */
static char *_6369d64511e48a7e1ce2522dc43493fCwlKU6hiKtVujnUY[] = {
/* columns rows colors chars-per-pixel */
"32 32 251 2 ",
"   c black",
".  c black",
"X  c #CA0011",
"o  c #CA0011",
"O  c #EB0072",
"+  c #660355",
"@  c #FB0098",
"#  c #F700AC",
"$  c #FA00BA",
"%  c #DB06A6",
"&  c #44023F",
"*  c #FC00B1",
"=  c #4B0246",
"-  c #8C0473",
";  c #94067E",
":  c #E40AD2",
">  c #E707DD",
",  c #ED00EE",
"<  c #EA00E1",
"1  c #FB11F0",
"2  c #ED00EE",
"3  c #EE09D8",
"4  c #FB11F0",
"5  c #F80CD8",
"6  c #FB11F0",
"7  c #F90EE7",
"8  c #FB11F0",
"9  c #E30AB0",
"0  c #FA0FEE",
"q  c #F80CE0",
"w  c #F503CB",
"e  c #CB089D",
"r  c #EE0CDF",
"t  c #FB11F0",
"y  c #E408A0",
"u  c #F20CDF",
"i  c #F80AD9",
"p  c #F910E7",
"a  c #FB0EEA",
"s  c #FB14EF",
"d  c #FB11F0",
"f  c #F608D9",
"g  c #ED00EE",
"h  c #FB11F0",
"j  c #E30BC8",
"k  c #FA46E7",
"l  c #FB10EE",
"z  c #FB12EF",
"x  c #F732CB",
"c  c #FA11EE",
"v  c #EA0AB9",
"b  c #EE0488",
"n  c #E10BC3",
"m  c #ED0DDA",
"M  c #EE0CD8",
"N  c #F60FE6",
"B  c #EE0CDF",
"V  c #F40ACA",
"C  c #FA10EE",
"Z  c #FB11F0",
"A  c #D50895",
"S  c #F00CE1",
"D  c #FA0EEB",
"F  c #FB6AEC",
"G  c #F4038E",
"H  c #FA0FEA",
"J  c #FA16F2",
"K  c #FB10EB",
"L  c #FB11F0",
"P  c #D9089E",
"I  c #F710EC",
"U  c #F90BE1",
"Y  c #FB10EC",
"T  c #F811EA",
"R  c #EC0391",
"E  c #EE0BD8",
"W  c #F60BDB",
"Q  c #F812EB",
"!  c #FA0FEA",
"~  c #E40ABB",
"^  c #FB11F0",
"/  c #FB12EF",
"(  c #F00CE1",
")  c #E20ABD",
"_  c #E609CA",
"`  c #F017CD",
"'  c #F043C5",
"]  c #F20FE2",
"[  c #AD0067",
"{  c #E40ABB",
"}  c #EB0AD5",
"|  c #F00CE1",
" . c #FA0CE3",
".. c #FB5CED",
"X. c #ED0BC6",
"o. c #E60AC1",
"O. c #FA5BEE",
"+. c #F80CE5",
"@. c #E40ABD",
"#. c #E80AC1",
"$. c #F710EC",
"%. c #FA0FE8",
"&. c #E60ABF",
"*. c #EB00D3",
"=. c #EE14B2",
"-. c #F52ED9",
";. c #E357B4",
":. c #F00CD1",
">. c #E84FD0",
",. c #F409B8",
"<. c #FD00CC",
"1. c #F80BDF",
"2. c #F916F0",
"3. c #EE24D2",
"4. c #F20EE0",
"5. c #F609EE",
"6. c #F90EEC",
"7. c #400065",
"8. c #BD2A7C",
"9. c #ED00EE",
"0. c #F00366",
"q. c #F07DE4",
"w. c #F305C7",
"e. c black",
"r. c #F32BE3",
"t. c #F80CE3",
"y. c #F614B2",
"u. c #320019",
"i. c black",
"p. c #F60AE5",
"a. c black",
"s. c #E607A0",
"d. c #F8E0EE",
"f. c black",
"g. c None",
"h. c #F902CD",
"j. c #FA94EC",
"k. c black",
"l. c #010000",
"z. c #04003A",
"x. c #060003",
"c. c #0C0004",
"v. c #10000B",
"b. c #210114",
"n. c #2A0013",
"m. c #2E0004",
"M. c #300005",
"N. c #31011B",
"B. c #390008",
"V. c #3E030A",
"C. c #3F0009",
"Z. c #400065",
"A. c #43000C",
"S. c #460517",
"D. c #48001F",
"F. c #52071D",
"G. c #600027",
"H. c #600220",
"J. c #660319",
"K. c #68031A",
"L. c #6A0023",
"P. c #6A021B",
"I. c #6C021A",
"U. c #6D051C",
"Y. c #6D5658",
"T. c #790325",
"R. c #7F0477",
"E. c #810329",
"W. c #820045",
"Q. c #87004B",
"!. c #8A0125",
"~. c #8A0928",
"^. c #8B022C",
"/. c #8C0F36",
"(. c #940130",
"). c #9A0E63",
"_. c #9E0B2D",
"`. c #A07F8A",
"'. c #A20A2D",
"]. c #A40B2E",
"[. c #A80E31",
"{. c #AE0B38",
"}. c #B10937",
"|. c #B2044E",
" X c #B5225B",
".X c #B90584",
"XX c #B90684",
"oX c #B90734",
"OX c #C2123E",
"+X c #C6093C",
"@X c #CA0589",
"#X c #CA0648",
"$X c #CC1442",
"%X c #CD1140",
"&X c #CD194A",
"*X c #CFAAAD",
"=X c #D06672",
"-X c #D7058C",
";X c #D70990",
":X c #D72D6C",
">X c #DA1661",
",X c #DB0782",
"<X c #E2099D",
"1X c #E20DCB",
"2X c #E30A83",
"3X c #E30D99",
"4X c #E31A8A",
"5X c #E5DFE3",
"6X c #E60E9C",
"7X c #E763C8",
"8X c #E80350",
"9X c #E817A8",
"0X c #E90DD3",
"qX c #ECDABE",
"wX c #EE246C",
"eX c #EF1DA6",
"rX c #F0256D",
"tX c #F02779",
"yX c #F03478",
"uX c #F203D8",
"iX c #F21087",
"pX c #F25D8F",
"aX c #F260A8",
"sX c #F465A1",
"dX c #F465A9",
"fX c #F526DD",
"gX c #F6A1BE",
"hX c #F70EE7",
"jX c #F8AAE9",
"kX c #F8BFCB",
"lX c #F9B4EC",
"zX c #FA21F0",
"xX c #FAC8E9",
"cX c #FBE1EE",
"vX c #FBE2E3",
"bX c #FC00C8",
"nX c #FCE0E0",
"mX c #FD37F6",
"MX c #FD59F8",
"NX c #FDAEE8",
"BX c #FDC6E9",
"VX c #FDE5E3",
"CX c #FDE8DD",
"ZX c #FDEEE8",
"AX c #FDF0F2",
"SX c #FEEBE4",
"DX c #FEF6F7",
"FX c #FEF9E7",
"GX c #FFFABE",
"HX c #FFFEFE",
"JX c white",
/* pixels */
"                # o < O o       , 8         o $                 ",
"                k.k.  4     , 8 8 ,       ,   k.k.k.            ",
"              k.5X`.k.,   , t Z , , ,   t , k.`.*X5Xk.          ",
"            g   k.5Xk.  6 k.^ ^ Z t k.t ,   k.*Xk.k.  ,         ",
"            , , k.*X`.k.k.J.F.k.k.S.J.k.k.k.`.*Xk.  g           ",
"            , g   k.5X`.J.].$XJ.$X].J.m.`.*X*Xk.    ,           ",
"              , 5.  k.*X].JX].J.].GXm.J.*X5Xk.h   g     ,       ",
"                g 5.h k.Y.GXJX].JXGXJ.Y.k.k.h   g 5.  g         ",
"        ,     5.  g g h k.J.].$X].J.J.k.6.g 5.g 5.  ,       ,   ",
"      , g   g g   g 5.6.k.GXJ.J.J.GXJ.J.k.k.R.5.2 g g     ,     ",
"      g g 5.g 5.5.R.R.k.J.J.GXJXGXJ.].m.[.].XXR.k.R.5.g , g   , ",
"    g 5.5.k.k.R.R.J.;XJ.m.].J.GXJ.].m.~.$X6X;XJ.J.@Xk.5.g g   g ",
"    g k.z.U._.].3X].;XJ.J.m.].].].k.J.].6X].I.!.-XoX%XR.k.k.g   ",
"    k.J.OX].U._.J.J.].;XJ.k.$X$Xk.J.].].].J.k.k.L.I..XJ.].U.k.1 ",
"  C k.m.J.J.m.Z.k.k.J.].].J.k.k.J.].$X$XJ.k.U x k.k.m.J.].m.m.d ",
"  0 Y m.J.].Z.p s z k.J.$X].J.J.].$X$X].k.+.w *.b J z.].J.m.K l ",
"  % D z.J.OXJ.z.q ..8.k.].$X].].$X$X].J.k.V ` -.t.Z.}.P.J.7.u   ",
"  > & S m.J.OXm.k F  .k.J.].J.J.J.].J.u.W ' =.p.z.K.(.J.Z.N ~   ",
"  y   ,.z.m.]./.;.5 7 ! m.m.].OXJ.J.m.%.f r.h.V.'.^.#Xm.2.R     ",
"  v { 9.z.]. X:Xz.i O.>.m.J.OX].].J.m.[ 4.bXN.+X=X>XC.1X1.P   > ",
"  = o.m.OX].zX&XA.0.H Z./.J.J.OXJ.'.E.D.uXn.eXtXjX4XB.hXA   >   ",
"  - M Q.].J.cX$Xm.<.L z.m.].OXJ.OX{.J.,X7XG.gXAXNX8XB.mX  e >   ",
"  ; m m.].zXBX].Z.a z.].J.J.].OX].T.].<XlXpXvXHXiXwX).MX] j     ",
"  + : X.z.W.].J.z.k.OX].m.k.z.Z.k.H.J.2XkXdXZXDXyXaXqX0Xn       ",
"      > @.:.W.z.G k.].J.k./ c T Q k.H.9X7XCXcXrXsXVXfX) ,       ",
"        , > &.#.$.k.J.J.k.I   3 r k.M.|.9Xj.FXxXSX3.9 ,         ",
"                , _ k.].].k.}     ( k.J.|.9Xd.nXq.w.,           ",
"                  , E k.J.].v.B   | k.E.J.Z.g.s.y.,             ",
"                    , / E.J.].k.k.k.].J.E.k.Z.Z.i.              ",
"                    b.E.$X].J.k.k.k.J.].$XE.x.c.l.i.            ",
"                  k.].$X].k.k.k.k.k.k.J.].$X].k.  .             ",
"                    a.k.f.      X @ * e.k.k.f.X                 "
};
