/* XPM */
static char *d2b000e3f1714a32b8d1c208c8b0cc9enaQ9F2TRlihw537C[] = {
/* columns rows colors chars-per-pixel */
"32 32 186 2 ",
"   c None",
".  c #1F1209",
"X  c #00001B",
"o  c #1C1C1C",
"O  c #161616",
"+  c #371B08",
"@  c #2B1F1D",
"#  c #271B13",
"$  c #3F200B",
"%  c #3D2313",
"&  c #322111",
"*  c #030625",
"=  c #1A1E2E",
"-  c #010C33",
";  c #03143A",
":  c #031A3F",
">  c #081739",
",  c #121B39",
"<  c #251F27",
"1  c #311D23",
"2  c #2A1B3C",
"3  c #3F1934",
"4  c #1F2125",
"5  c #1C2238",
"6  c #232323",
"7  c #242629",
"8  c #2B242C",
"9  c #2B2C2C",
"0  c #27292A",
"q  c #3B2E26",
"w  c #252B37",
"e  c #2F3335",
"r  c #323232",
"t  c #35373A",
"y  c #3B3C3D",
"u  c #41220C",
"i  c #5E310F",
"p  c #492B18",
"a  c #522E15",
"s  c #553116",
"d  c #5E3414",
"f  c #552B0D",
"g  c #63300C",
"h  c #7E3B0C",
"j  c #693A18",
"k  c #6F350D",
"l  c #5B1E39",
"z  c #4D1B38",
"x  c #493728",
"c  c #563729",
"v  c #70302F",
"b  c #77431B",
"n  c #42403D",
"m  c #784C2A",
"M  c #041C43",
"N  c #011D4A",
"B  c #031742",
"V  c #161C43",
"C  c #052247",
"Z  c #0A2244",
"A  c #04224A",
"S  c #162A4A",
"D  c #1A2D4A",
"F  c #1D2349",
"G  c #1C394F",
"H  c #1B3345",
"J  c #002552",
"K  c #032D5A",
"L  c #082B56",
"P  c #0C3553",
"I  c #05335B",
"U  c #113452",
"Y  c #292143",
"T  c #383D45",
"R  c #203750",
"E  c #242C54",
"W  c #033564",
"Q  c #02376A",
"!  c #033B6D",
"~  c #0A3B64",
"^  c #033D71",
"/  c #552F51",
"(  c #40335A",
")  c #592B4A",
"_  c #1B485B",
"`  c #3E4142",
"'  c #03457A",
"]  c #085F7A",
"[  c #444444",
"{  c #434649",
"}  c #494B4C",
"|  c #44484A",
" . c #474B51",
".. c #4E4F50",
"X. c #4D5255",
"o. c #525454",
"O. c #52575B",
"+. c #56595B",
"@. c #5B5B5B",
"#. c #5A5E62",
"$. c #55436A",
"%. c #5D6164",
"&. c #616263",
"*. c #686868",
"=. c #6E7173",
"-. c #717272",
";. c #852336",
":. c #B62C39",
">. c #AD2C3A",
",. c #F91A18",
"<. c #F31E20",
"1. c #D8313B",
"2. c #DB2B33",
"3. c #E7292F",
"4. c #E9272C",
"5. c #E92B30",
"6. c #EA343C",
"7. c #FF3739",
"8. c #FF393D",
"9. c #F9353A",
"0. c #8C430E",
"q. c #93470F",
"w. c #8E4B19",
"e. c #8D4511",
"r. c #934E1A",
"t. c #95511C",
"y. c #8F572A",
"u. c #945A2B",
"i. c #9A5D2B",
"p. c #9F612E",
"a. c #A1622D",
"s. c #B03749",
"d. c #9E4760",
"f. c #044D84",
"g. c #02548C",
"h. c #055B91",
"j. c #04659F",
"k. c #097A9B",
"l. c #046FB2",
"z. c #0475B3",
"x. c #067DBD",
"c. c #2975B5",
"v. c #58618C",
"b. c #626A83",
"n. c #746980",
"m. c #727187",
"M. c #647289",
"N. c #4C6CA1",
"B. c #008A9D",
"V. c #0593A8",
"C. c #0882B1",
"Z. c #0CA6B7",
"A. c #0686C8",
"S. c #068BCE",
"D. c #048CD3",
"F. c #0486D5",
"G. c #0691D5",
"H. c #0694DB",
"J. c #0699DE",
"K. c #208AC8",
"L. c #0CB2C4",
"P. c #0DBCC9",
"I. c #0CB7C6",
"U. c #09ADDC",
"Y. c #059CE3",
"T. c #009FEF",
"R. c #07A0E7",
"E. c #05A2EA",
"W. c #09B3E5",
"Q. c #06A9F3",
"!. c #09C7D5",
"~. c #0ED6E2",
"^. c #0AC9F7",
"/. c #0AC8FA",
"(. c #0DDFF5",
"). c #0FE3E8",
"_. c #03E1FE",
"`. c #0FEDFB",
"'. c #0FF4FF",
"]. c #0FF0F5",
"[. c #10F5FD",
"{. c #10FEFF",
"}. c #D8DDE2",
"|. c #DDE1E6",
" X c #EFECEF",
".X c #F4F6F7",
/* pixels */
"                            0 9 r 6                             ",
"                      o O } @.| } o.@.6 o                       ",
"                    y &.+.y ` 7 o T y ..*.y                     ",
"                  9 } &.| & j g b k + n +.| [                   ",
"                6 &.| x g r.p.0.p.t.r.m + y -.9                 ",
"                [ =.q y.r.r.i.0.i.w.w.i.0.% X.0                 ",
"                9 { f i.w.r.i.0.i.w.w.i.0.b r o.[               ",
"              9 o.. h i.w.c Z Z Z Z c u.0.i.x &.y               ",
"              r #.u q.y.8 R l.C.L.I._ 1 h a.i  .|               ",
"              o 9 $ e.w K g./.'.{.{.~.P.G y.d 7 6               ",
"              0 | $ 5 Q W B k.{.`.`.'.{.).G s y r               ",
"              r #., Q ! K * ] {.'.{.{.'.'.).P  .|               ",
"              o e ; A Q f.D.U.{.V.: M L.{.{.~ 0 0               ",
"              6 S }.- I Y.H.^.V.m. Xb.* I.{.].P 9               ",
"              r S |.- I E.H.^.B.n..XM.X L.{.{.I |               ",
"              6 : ; ; W E.H.^.Z.- ; ; ; P.{.{.I 9               ",
"              o B M M f.R.H.D./.Z.C C I.{.`.{.I 9               ",
"              r S W Q ' G.Y.J.W.'.{.{.'.`.'.~.U |               ",
"              0 { M ^ W ' z.x.H.W.(.`.[.[.{.I t r               ",
"              o 9 , W ! Q K g.E.H.F.W._._.!.H 7 6               ",
"              r %.u M ! ' J.Q.J.Y.E.T.c.N.V a X.|               ",
"              9 } % V ( Q ' z.D.K.v.N.s.,.3 s ` t               ",
"              o 0 % 2 2./ ) l $.d.,.<.7.:.F 8 4 o               ",
"              r #.$ 2 7.3.5.5.4.3.8.>.v , j.A  .|               ",
"              9 X.= L ;.9.6.6.9.8.:.F N g.Y.z.D y               ",
"              o 7 M ! E 7.6.8.:.l V J j.Y.J.Q.K o               ",
"              9 O.M ^ ~ ;.1.z Y N g.A.h.A.E.Q.K [               ",
"              9 +.@ A J L Y K g.S.D.E.S.g.f.' T [               ",
"              o 0 $ j M ! W ! ^ x.E.H.Y.G.I p 6 o               ",
"              9 O.u b N ^ ! ! K ; j.Y.H.E.W p | y               ",
"              9 #.u q.m A ! ! K * h.E.H.E.W p } [               ",
"              0 r # p q A ! ! K 8 < j.Y.R.W @ 0 7               "
};