/* XPM */
static char *_2a35c2292cf4e43ad1e75d32ba0dcecZrWwOXBzISEYt3p3[] = {
/* columns rows colors chars-per-pixel */
"32 32 184 2 ",
"   c None",
".  c #1F1209",
"X  c #000017",
"o  c #1C1B1C",
"O  c #161616",
"+  c #371904",
"@  c #251B1D",
"#  c #311D16",
"$  c #3F200A",
"%  c #322213",
"&  c #3D2619",
"*  c #01052B",
"=  c #1A0C20",
"-  c #010C33",
";  c #090D35",
":  c #03143A",
">  c #04193F",
",  c #081138",
"<  c #1F1A3C",
"1  c #1A1C35",
"2  c #201D28",
"3  c #12203E",
"4  c #232323",
"5  c #25272A",
"6  c #2B2C2C",
"7  c #2E2527",
"8  c #3B2F27",
"9  c #242733",
"0  c #323232",
"q  c #3B3C3D",
"w  c #37383A",
"e  c #44230C",
"r  c #5E320F",
"t  c #573216",
"y  c #5C3312",
"u  c #552B0D",
"i  c #63300C",
"p  c #7E3B0C",
"a  c #6D3C1A",
"s  c #683614",
"d  c #7F3E12",
"f  c #652E06",
"g  c #561B35",
"h  c #411A38",
"j  c #691F39",
"k  c #4A3527",
"l  c #6B3F22",
"z  c #722237",
"x  c #73451E",
"c  c #42403D",
"v  c #6D472F",
"b  c #7D4D25",
"n  c #7D5032",
"m  c #041C44",
"M  c #0B1E42",
"N  c #001F4E",
"B  c #1E1F4C",
"V  c #281F42",
"C  c #0D2244",
"Z  c #03214A",
"A  c #032E5B",
"S  c #052A56",
"D  c #05335B",
"F  c #053457",
"G  c #173555",
"H  c #192E4C",
"J  c #262147",
"K  c #3A3C42",
"L  c #033464",
"P  c #033B6C",
"I  c #073869",
"U  c #023D71",
"Y  c #503154",
"T  c #622C4B",
"R  c #603A5C",
"E  c #17445F",
"W  c #3E4142",
"Q  c #334153",
"!  c #074C6D",
"~  c #09506E",
"^  c #054474",
"/  c #044478",
"(  c #095A77",
")  c #115C75",
"_  c #444444",
"`  c #434648",
"'  c #4A4C4D",
"]  c #44484A",
"[  c #4D4F51",
"{  c #494F5A",
"}  c #4D5154",
"|  c #4A5059",
" . c #525454",
".. c #57595B",
"X. c #58595A",
"o. c #5A5E62",
"O. c #594E6A",
"+. c #685B7B",
"@. c #5D6164",
"#. c #616263",
"$. c #686868",
"%. c #6E7173",
"&. c #717272",
"*. c #B82C3A",
"=. c #FA1C1A",
"-. c #C12D3A",
";. c #E8282D",
":. c #F22022",
">. c #E42B31",
",. c #E92B31",
"<. c #E9343C",
"1. c #E0323B",
"2. c #FF3739",
"3. c #FF393C",
"4. c #F73439",
"5. c #8C430E",
"6. c #92470F",
"7. c #8E4B19",
"8. c #934E1A",
"9. c #95511C",
"0. c #8E5525",
"q. c #955B2C",
"w. c #9A5D2B",
"e. c #9F612E",
"r. c #A3622D",
"t. c #A83A50",
"y. c #9A4862",
"u. c #034D84",
"i. c #025186",
"p. c #06588C",
"a. c #045A92",
"s. c #055F99",
"d. c #076080",
"f. c #126980",
"g. c #00609D",
"h. c #036BA8",
"j. c #0576B4",
"k. c #2974B5",
"l. c #625F91",
"z. c #566592",
"x. c #707E93",
"c. c #0D98AF",
"v. c #009CAD",
"b. c #0B99B0",
"n. c #0A8CA3",
"m. c #07A7B8",
"M. c #0485C8",
"N. c #1E8CCB",
"B. c #068DD2",
"V. c #0486D5",
"C. c #0690D4",
"Z. c #0694DB",
"A. c #0799DF",
"S. c #0896C8",
"D. c #0CB3C7",
"F. c #07BED1",
"G. c #0697E0",
"H. c #059CE3",
"J. c #06A0E7",
"K. c #09ACE2",
"L. c #06A3EB",
"P. c #08A7E0",
"I. c #06ABF5",
"U. c #03A8F6",
"Y. c #09BFF2",
"T. c #09BEF9",
"R. c #08B6ED",
"E. c #0EC6D0",
"W. c #0ED5DD",
"Q. c #02DCFC",
"!. c #0DD7F2",
"~. c #0AC5F6",
"^. c #0EE0E4",
"/. c #0FE4F5",
"(. c #0EEBF7",
"). c #0FEEFB",
"_. c #0FF4FE",
"`. c #0FF5F7",
"'. c #10FEFE",
"]. c #10F4FC",
"[. c #8490A3",
"{. c #CFD4DB",
"}. c #DFE2E7",
"|. c #FAFBFB",
/* pixels */
"                            5 6 0 4                             ",
"                      o O ' X.] '  .X.4 o                       ",
"                    q #...q W 5 o K q [ $.q                     ",
"                  6 ' #.] % a f x s + c ..] _                   ",
"                4 @.` k i 8.e.5.e.9.8.b + q &.6                 ",
"                _ %.8 0.8.8.w.5.w.7.7.w.5.& } 5                 ",
"                6 ` u w.7.8.w.5.w.7.7.w.5.x 0  ._               ",
"              6  .. p w.7.k C C M M l q.5.w.k #.q               ",
"              0 o.e 6.v = f.W.W.S.M.G 1 d r.r ' ]               ",
"              o 6 $ s ) ^./._._._.T.u.L 3 q.y 5 4               ",
"              5 ] # ( `._._.).).'.d., L P C y q 0               ",
"              0 { ~ ]._.).(.(.).'.( - L P P > } ]               ",
"              o 9 ( '.].n.; , c.].K.G.u.I m C 6 5               ",
"              4 ! '.'.b.X [.|.+.v.Y.Z.J.S - |.C 6               ",
"              0 ! '.'.c.X x.}.O.m.Y.Z.H.S - {.C ]               ",
"              4 ! '.'.m.> * * : D.R.Z.H.D : - > 6               ",
"              o ! '.).'.D.F F E.~.B.Z.J.u.Z Z > 6               ",
"              0 E W._.)._.'.'._.P.G.J.M./ P L H ]               ",
"              5 K ! '.].]./.!.P.Z.j.h.P L P > w 0               ",
"              o 9 H F.Q.Q.K.V.Z.J.p.I P P A 9 5 4               ",
"              0 @.# B l.k.U.L.G.A.I.B./ U m y } ]               ",
"              6 ' # g =.t.z.+.N.M.h.U P Y M t W w               ",
"              o 5 1 J *.2.:.=.y.R j T T >.< t 4 o               ",
"              0 | A g.< j *.3.;.;.,.,.>.2.< y [ ]               ",
"              6 G M.H.i.N J *.3.4.<.<.4.z S 9 ` q               ",
"              o I I.A.H.s.S V g -.3.<.2.G P m 4 o               ",
"              6 I I.L.j.a.B.i.N J h 1.z I U m ' _               ",
"              6 Q U u.a.C.J.B.C.i.A V A Z Z @ ' _               ",
"              o 6 @ P A.H.Z.L.j.P P L P m n s 4 o               ",
"              6  .# ^ L.Z.J.a.: A P P U m q.y ] q               ",
"              6 o.# ^ L.Z.L.i.* A P P Z a r.r ' _               ",
"              5 0 o ^ J.H.a.7 2 A P P m & k % 6 5               "
};
