/* XPM */
static char *_6db70efee6c49d6d268efcf385bbde4bRBwj50JniMIpP1v[] = {
/* columns rows colors chars-per-pixel */
"32 32 166 2 ",
"   c None",
".  c #FF5D1F",
"X  c #FF5F1E",
"o  c #FF6F15",
"O  c #FF6D17",
"+  c #FF6E16",
"@  c #FF671A",
"#  c #FF661B",
"$  c #FF611D",
"%  c #FF631C",
"&  c #FF621D",
"*  c #FF6918",
"=  c #FF6819",
"-  c #FF7413",
";  c #FF7612",
":  c #FF7114",
">  c #FF7811",
",  c #FF4F26",
"<  c #FF5423",
"1  c #FF5523",
"2  c #FF5722",
"3  c #FF5623",
"4  c #FF5324",
"5  c #FF5225",
"6  c #FF5424",
"7  c #FF8C06",
"8  c #FF8D06",
"9  c #FF830B",
"0  c #FF8709",
"q  c #FF850A",
"w  c #FF8809",
"e  c #FF9300",
"r  c #FF9303",
"t  c #FF9400",
"y  c #FF9500",
"u  c #FF9501",
"i  c #FF9600",
"p  c #FF9700",
"a  c #FF9502",
"s  c #FF9104",
"d  c #FF9800",
"f  c #FF9900",
"g  c #FF9A00",
"h  c #FF9B00",
"j  c #FF9A01",
"k  c #FF9C00",
"l  c #FF9C01",
"z  c #FF9E00",
"x  c #FF9F00",
"c  c #FF9E01",
"v  c #FF9E02",
"b  c #FFA102",
"n  c #FFA202",
"m  c #FFA502",
"M  c #FFA503",
"N  c #FFA702",
"B  c #FFA603",
"V  c #FFA703",
"C  c #FFA903",
"Z  c #FFAA03",
"A  c #FFAB03",
"S  c #FFAC03",
"D  c #FFAD04",
"F  c #FFAE04",
"G  c #FFAF04",
"H  c #FFB004",
"J  c #FFB104",
"K  c #FFB304",
"L  c #FFB107",
"P  c #FFB505",
"I  c #FFB605",
"U  c #FFBB00",
"Y  c #FFBC00",
"T  c #FFBC01",
"R  c #FFBC02",
"E  c #FFBE02",
"W  c #FFBE03",
"Q  c #FFBF03",
"!  c #FFB805",
"~  c #FFB906",
"^  c #FFBB06",
"/  c #FFBC05",
"(  c #FFBE04",
")  c #FFBF04",
"_  c #FFBF05",
"`  c #FFBD06",
"'  c #FFBE06",
"]  c #FFBE07",
"[  c #FFC005",
"{  c #FFC105",
"}  c #FFC006",
"|  c #FFC106",
" . c #FFC007",
".. c #FFC107",
"X. c #FFC206",
"o. c #FFC306",
"O. c #FFC207",
"+. c #FFC307",
"@. c #FFC607",
"#. c #FFC209",
"$. c #FFC309",
"%. c #FFC30A",
"&. c #FFC408",
"*. c #FFC409",
"=. c #FFC40A",
"-. c #FFC40B",
";. c #FFC50C",
":. c #FFC50D",
">. c #FFC60D",
",. c #FFC70E",
"<. c #FFC70F",
"1. c #FFC80D",
"2. c #FFC710",
"3. c #FFC810",
"4. c #FFCA11",
"5. c #FFCA12",
"6. c #FFCB13",
"7. c #FFCA14",
"8. c #FFCC14",
"9. c #FFCD15",
"0. c #FFCE17",
"q. c #FFCF17",
"w. c #FFD01A",
"e. c #FFD21C",
"r. c #FFD31D",
"t. c #FFD31E",
"y. c #FFD41E",
"u. c #FFD520",
"i. c #FFD620",
"p. c #FFD621",
"a. c #FFD722",
"s. c #FFD824",
"d. c #FFDA26",
"f. c #FFDB26",
"g. c #FFDB27",
"h. c #FFDC29",
"j. c #FFDD29",
"k. c #FFDE2B",
"l. c #FFE02D",
"z. c #FFE02E",
"x. c #FFE12F",
"c. c #FFE22F",
"v. c #FFE130",
"b. c #FFE230",
"n. c #FFE231",
"m. c #FFE332",
"M. c #FFE634",
"N. c #FFE735",
"B. c #FFE736",
"V. c #FFE837",
"C. c #FFE937",
"Z. c #FFE938",
"A. c #FFE939",
"S. c #FFEA3A",
"D. c #FFEB3A",
"F. c #FFEB3B",
"G. c #FFEB3C",
"H. c #FFEC3C",
"J. c #FFEC3D",
"K. c #FFED3D",
"L. c #FFED3E",
"P. c #FFEE3E",
"I. c #FFEE3F",
"U. c #FFEF3F",
"Y. c #FFEE40",
"T. c #FFF041",
/* pixels */
"                                                                ",
"                                                                ",
"                            F.F.F.                              ",
"                          F.F.F.F.                              ",
"                        F.F.F.F.F.F.F.                          ",
"                      F.F.F.F.F.F.F.F.                          ",
"                        F.F.F.H.H.F.F.F.F.                      ",
"                      F.F.F.F.B.B.F.F.F.F.                      ",
"                    F.F.F.F.H.6.#.V.H.F.F.                      ",
"                    F.F.F.F.H.6.+.h.v.F.F.                      ",
"                    F.F.F.H.H.7._ T ,.F.H.F.F.                  ",
"                    F.F.H.x.g.,.+.+.,.F.H.F.F.                  ",
"                    F.H.T.w.T +.&.+.2.H.H.F.F.                  ",
"                    H.x.t.6.+.G C _ &.t.g.H.F.                  ",
"                    T.p.U +.&.v t _ +.T 6.H.F.                  ",
"                H.x.q.6.+.G m j j _ +._ q.H.F.                  ",
"                H.g.T +.+.m t t j _ +._ q.H.F.                  ",
"            F.F.H.F.B.t.+.m t j j v m +.&.,.p.H.                ",
"            F.F.F.F.H.p._ m t t t t v _ +.T w.F.                ",
"            H.x.&.,.1.J j j j * X r v j m +.#.&.g.H.F.F.        ",
"            H.x._ +.+.S t j j & 2 w s t b ! _ T y.B.F.F.        ",
"            H.v._ +.@.G t j v # 2 2 & j j t C +.+._ h.H.        ",
"            x.g.+._ ! m t 8 0 & 2 2 X 0 8 t C +.+._ h.H.        ",
"        Y.B.+.+.@.J t t j o 4 2 2 2 2 4 # j C @.+._ x.T.G.F.    ",
"        h.p.+._ J m t j j o 6 2 2 2 2 6 * j b J ! +.t.g.V.G.    ",
"    H.F.#.T +.I t t j j v o 6 2 2 2 2 6 * v j r G +._ _ v.H.    ",
"    H.F.,.+.+.I t j j 0 ; & 2 2 2 2 2 2 X ; 9 j G +.+.+.v.H.    ",
"    H.F.,._ +.I t j v ; , 2 2 2 2 2 2 2 2 , o j G +.+.+.v.H.    ",
"    q.q.#.+.+.I t j v > 4 2 2 2 2 2 2 2 2 4 : j G +.+.+.v.H.    ",
"    _ _ +.+.+.I t j v > 4 2 2 2 2 2 2 2 2 4 : j G +.+.+.v.H.    ",
"    +.+.+.+.+.I t j v > 4 2 2 2 2 2 2 2 2 4 : j G +.+.+.6.6.    ",
"    +.+.+.+.+.I t j v > 4 2 2 2 2 2 2 2 2 4 : j G +.+.+.+._     "
};
