/* XPM */
static char *_3f01ad35a35458dc885f3ae7915f7e6Z3CsT7K44nwyflNd[] = {
/* columns rows colors chars-per-pixel */
"32 32 137 2 ",
"   c None",
".  c #FF5E1E",
"X  c #FF5F1E",
"o  c #FF5E1F",
"O  c #FF621C",
"+  c #FF621D",
"@  c #FF601E",
"#  c #FF671E",
"$  c #FF671F",
"%  c #FF5323",
"&  c #FF5423",
"*  c #FF5523",
"=  c #FF5622",
"-  c #FF5722",
";  c #FF5124",
":  c #FF5324",
">  c #FF5225",
",  c #FF5424",
"<  c #FF5821",
"1  c #FF5822",
"2  c #FF8C05",
"3  c #FF8F04",
"4  c #FF8E05",
"5  c #FF8F05",
"6  c #FF8D06",
"7  c #FF8E06",
"8  c #FF8F07",
"9  c #FF8709",
"0  c #FF850A",
"q  c #FF860A",
"w  c #FF800D",
"e  c #FF8909",
"r  c #FF8A08",
"t  c #FF8F08",
"y  c #FF9500",
"u  c #FF9401",
"i  c #FF9501",
"p  c #FF9600",
"a  c #FF9700",
"s  c #FF9601",
"d  c #FF9104",
"f  c #FF9105",
"g  c #FF9800",
"h  c #FF9900",
"j  c #FF9801",
"k  c #FF9A00",
"l  c #FF9B00",
"z  c #FF9D00",
"x  c #FF9E00",
"c  c #FF9F00",
"v  c #FF9E01",
"b  c #FF9F01",
"n  c #FF9209",
"m  c #FFA100",
"M  c #FFA001",
"N  c #FFA200",
"B  c #FFAF06",
"V  c #FFB103",
"C  c #FFB204",
"Z  c #FFB006",
"A  c #FFB504",
"S  c #FFB605",
"D  c #FFB606",
"F  c #FFB803",
"G  c #FFBA03",
"H  c #FFBD03",
"J  c #FFBE03",
"K  c #FFB905",
"L  c #FFBA05",
"P  c #FFBB05",
"I  c #FFB806",
"U  c #FFB906",
"Y  c #FFBA06",
"T  c #FFBB06",
"R  c #FFBC05",
"E  c #FFBD05",
"W  c #FFBF04",
"Q  c #FFBF05",
"!  c #FFBC06",
"~  c #FFBD06",
"^  c #FFBF06",
"/  c #FFBF07",
"(  c #FFBE0C",
")  c #FFC004",
"_  c #FFC005",
"`  c #FFC105",
"'  c #FFC006",
"]  c #FFC106",
"[  c #FFC007",
"{  c #FFC107",
"}  c #FFC206",
"|  c #FFC207",
" . c #FFC307",
".. c #FFC407",
"X. c #FFC208",
"o. c #FFC308",
"O. c #FFC508",
"+. c #FFC509",
"@. c #FFC70D",
"#. c #FFC60E",
"$. c #FFC70E",
"%. c #FFC70F",
"&. c #FFC90E",
"*. c #FFC810",
"=. c #FFC910",
"-. c #FFC811",
";. c #FFDA28",
":. c #FFDC28",
">. c #FFDC29",
",. c #FFDF2C",
"<. c #FFDF2D",
"1. c #FFE02D",
"2. c #FFE02E",
"3. c #FFE12E",
"4. c #FFE12F",
"5. c #FFE22F",
"6. c #FFE230",
"7. c #FFE330",
"8. c #FFE231",
"9. c #FFE331",
"0. c #FFE533",
"q. c #FFE534",
"w. c #FFE735",
"e. c #FFE736",
"r. c #FFE737",
"t. c #FFE939",
"y. c #FFEA39",
"u. c #FFEA3B",
"i. c #FFEB3B",
"p. c #FFEB3C",
"a. c #FFEC3C",
"s. c #FFEC3D",
"d. c #FFED3D",
"f. c #FFEC3E",
"g. c #FFED3E",
"h. c #FFEE3E",
"j. c #FFEE40",
/* pixels */
"                                                                ",
"                          i.i.i.i.                              ",
"                          i.i.i.i.                              ",
"                          i.i.i.i.i.i.                          ",
"                          i.i.i.i.i.i.                          ",
"                          i.i.i.i.i.i.                          ",
"                          i.i.i.i.i.i.                          ",
"                          i.i.i.i.i.i.i.i.                      ",
"                          i.i.i.i.i.i.i.i.                      ",
"                          i.i.i.i.i.i.i.i.i.i.                  ",
"                          i.i.i.i.i.i.i.i.i.i.                  ",
"                      i.i.i.i.d.d.d.d.i.i.i.i.                  ",
"                      i.i.i.i.9.3.3.3.i.i.i.i.                  ",
"                  i.i.d.d.d.d.&.` ` ` w.j.i.i.    i.i.          ",
"                  i.i.9.3.3.3.( S Q X.:.9.i.i.    i.i.          ",
"              i.i.p.i.$.H ` ` c g Q ..` Q w.j.i.i.i.i.          ",
"              i.i.p.i.*.Q K S 8 0 B K Q ` :.9.i.i.i.i.          ",
"              i.i.d.d.*.Q M g X > 8 c Q ..` ` 0.d.i.i.          ",
"              i.i.9.3.$.Q n 0 X - w r B K Q X.0.d.i.i.          ",
"          i.i.d.d.$.H ..` # > - - - - 8 g K X.w.j.i.i.i.i.      ",
"          i.i.9.3.$.Q K S # % - - - 1 8 g K X.:.9.i.i.i.i.      ",
"          p.i.$.H ` ` c u @ - - - - 1 f c Q ..` ` 0.d.i.i.      ",
"          p.i.*.Q ` ` c u @ - - - - 1 w r Z K Q X.w.d.i.i.      ",
"  i.i.i.i.p.i.*.Q ..` M g @ - - - - - - - 8 g Q O.w.j.i.i.i.i.  ",
"  i.i.i.i.p.i.*.` K S t 0 X - - - - - - - 8 g Z K ;.3.i.i.i.i.  ",
"  i.i.i.i.d.d.*.Q c u @ > - - - - - - - - f c u u F ` w.d.i.i.  ",
"  i.i.i.i.9.,.$.` c u @ , - - - - - - - - w r u g K X.w.d.i.i.  ",
"  i.i.d.i.$.H ` ` c u @ , - - - - - - - - - - 8 g Q O.w.j.i.i.  ",
"  i.i.d.i.*.Q ` ` c u @ , - - - - - - - - - 1 8 g V K ;.3.i.i.  ",
"  i.i.d.d.*.Q ..` M u @ , - - - - - - - - - 1 8 g u g F ` w.d.  ",
"  i.i.9.,.$.` K S c u @ , - 1 1 - - - - - - 1 8 g u g K O.w.d.  ",
"  d.i.$.H ` ` c u g g @ , - - 1 - - - - - - 1 8 g u g K O.w.d.  "
};
