/* XPM */
static char *_3decc1a1d0d49fcce62e694128fc1810xZSDzk5Lgu6wA6D[] = {
/* columns rows colors chars-per-pixel */
"32 32 93 2 ",
"   c None",
".  c #FD502E",
"X  c #FD522E",
"o  c #FD532E",
"O  c #FD542E",
"+  c #FD552E",
"@  c #FD562E",
"#  c #FD572E",
"$  c #FD582E",
"%  c #FD592E",
"&  c #FD5A2E",
"*  c #FD5B2E",
"=  c #FD5C2E",
"-  c #FD5D2E",
";  c #FD5D2F",
":  c #FD632F",
">  c #FD8C2A",
",  c #FD8D2A",
"<  c #FD8C2B",
"1  c #FD8E2A",
"2  c #FD8F2A",
"3  c #FD902A",
"4  c #FD912A",
"5  c #FD922A",
"6  c #FD932A",
"7  c #FD922B",
"8  c #FD942A",
"9  c #FD952A",
"0  c #FD942B",
"q  c #FD952B",
"w  c #FD962A",
"e  c #FD972A",
"r  c #FD972B",
"t  c #FD982A",
"y  c #FD992A",
"u  c #FD982B",
"i  c #FD992B",
"p  c #FD9A2A",
"a  c #FD9A2B",
"s  c #FD9B2B",
"d  c #FD9C2B",
"f  c #FD9B2C",
"g  c #FD9D2C",
"h  c #FD9D2D",
"j  c #FD9E2C",
"k  c #FDA12E",
"l  c #FEB733",
"z  c #FEB931",
"x  c #FEB832",
"c  c #FEB932",
"v  c #FEB933",
"b  c #FEBA32",
"n  c #FEBB33",
"m  c #FEBC32",
"M  c #FEBD32",
"N  c #FEBC33",
"B  c #FEBD33",
"V  c #FEBE33",
"C  c #FEBF33",
"Z  c #FEBB34",
"A  c #FEBD34",
"S  c #FEBE34",
"D  c #FEBF34",
"F  c #FEBF35",
"G  c #FEBF36",
"H  c #FEC034",
"J  c #FEC134",
"K  c #FEC035",
"L  c #FEC135",
"P  c #FEC234",
"I  c #FEC136",
"U  c #FEC236",
"Y  c #FEC336",
"T  c #FEC337",
"R  c #FEC437",
"E  c #FEC438",
"W  c #FEC538",
"Q  c #FEC639",
"!  c #FEE14E",
"~  c #FEE14F",
"^  c #FEE24F",
"/  c #FEE34F",
"(  c #FEE551",
")  c #FEE651",
"_  c #FEE552",
"`  c #FEE652",
"'  c #FEE752",
"]  c #FEE753",
"[  c #FEE853",
"{  c #FEE954",
"}  c #FEEA55",
"|  c #FEEB55",
" . c #FEEB56",
/* pixels */
"                                                                ",
"                          { {                                   ",
"                          { {                                   ",
"                  { { { { { {                                   ",
"                  { { { { { {                                   ",
"                  { { { { { {                                   ",
"                  { { { { { {                                   ",
"                  { { { { { { { {                               ",
"                  { { { { { { { {                               ",
"              { { { { { { { { { { { {                           ",
"              { { { { { { { { { { { {                           ",
"              { { { { { { { { { { { {                           ",
"              { { { { { { ` ` { { { {                           ",
"          { { { { { { { ` W T ` { { { { { { {                   ",
"          { { { { { { { ` T D ! ` { { { { { {                   ",
"      { { { { { { { { { ` T C T W ` { { { { { { { { {           ",
"      { { ` ` ` ` ` ` ` ! D C C T ! ` { { { { { { { {           ",
"      { ` W T T T R T k g s s C T T T ` { { { { { { {           ",
"      { ` T C C C C n 4 < q q n C C D ! ` { { { { { {           ",
"      { ` T C T C g q ; * 4 s s f C T T W ` { { { { {           ",
"      { ` T C T C s 4 * O < 4 q q n D C T ` { { { { {           ",
"      { ` T C T C d 4 * . * ; 4 s s s n T ` { { { { {           ",
"      { ` T C T C q < * . . O < q q q n D ! [ { { { {           ",
"      { ` T C T Z : O O O O O * ; 4 q s f D W ` { { { { {       ",
"      { ` T C D l ; . O O O O . O 4 q q q n T ` { { { { {       ",
"      { ` R n g q * . O O O O . * 4 q q s n T ` { { { { {       ",
"      { ` R n s 4 * . O O O O . * 4 q q s n T ! ` { { { {       ",
"      { ` R n s 4 * . O O O O . * 4 s q s n T T W ` { { {       ",
"      { ` R n s 4 * . O O O O . * < 4 q s n T C T ` { { {       ",
"      { ` R n s 4 * . O O O O O O * ; < s C T C T ` { { {       ",
"      { ` R n s 4 * . O O O O O O . O < s n C C T ` { { {       ",
"      { ` R n s 4 * . O O O O O O . O < s s d n T ` { { {       "
};
