/* XPM */
static char *_904914aaa2e4bf491d7c51c509d2197QdmFQT7omckA3Jy6[] = {
/* columns rows colors chars-per-pixel */
"32 32 9 1 ",
"  c None",
". c #04193F",
"X c #0FEFFB",
"o c #0696DB",
"O c #03396B",
"+ c #FCFEFE",
"@ c #C3242F",
"# c #E7333B",
"$ c white",
/* pixels */
"                                ",
"                                ",
"                                ",
"                                ",
"                                ",
"                                ",
"             .....              ",
"           ..ooXXX..            ",
"          .OOoXXXXXX.           ",
"         .OO..XXXXXXX.          ",
"        .OOO..XXXXXXXX.         ",
"        ..OOooXX...XXX.         ",
"       .+..oooX.++..XXX.        ",
"       .+..oooX.++..XXX.        ",
"       ....oooX.....XXX.        ",
"       ...OooooX...XXXX.        ",
"       .OOOooooXXXXXXXX.        ",
"        .OOOooooXXXXXX.         ",
"        .OOO..ooooXXXX.         ",
"         .OOooooooooo.          ",
"         .OOOoooooo@@.          ",
"         .@OOOOo@@@##.          ",
"         .#@@@@@####.O.         ",
"         .########..Oo.         ",
"        .O.######.OOooo.        ",
"        .OO####..OOoooo.        ",
"        .OO.#..OOooOooo.        ",
"         ..O.OOoooooOO.         ",
"          .OOOOOooooo.          ",
"          .OOOO..oooo.          ",
"           .OOO..oooo.          ",
"           .OOO. .ooo.          "
};
