/* XPM */
static char *eaaed0d002bd46ddad56fb7053de4a5bkOpe078ZKH5b00yJ[] = {
/* columns rows colors chars-per-pixel */
"32 33 119 2 ",
"   c None",
".  c #040303",
"X  c #090707",
"o  c #090807",
"O  c #0C0B0A",
"+  c #110F0D",
"@  c #13110E",
"#  c #161311",
"$  c #191613",
"%  c #1D1916",
"&  c #1E1B19",
"*  c #221E1B",
"=  c #26211D",
"-  c #29231F",
";  c #262220",
":  c #2C2521",
">  c #2E2824",
",  c #332B26",
"<  c #352E2A",
"1  c #382F29",
"2  c #3C322D",
"3  c #363432",
"4  c #3F3630",
"5  c #40362F",
"6  c #403630",
"7  c #453A33",
"8  c #4A3E37",
"9  c #4B3F38",
"0  c #4D423A",
"q  c #52463E",
"w  c #54483F",
"e  c #534741",
"r  c #554941",
"t  c #5A4D45",
"y  c #5B4E45",
"u  c #594E46",
"i  c #5B4E46",
"p  c #594C44",
"a  c #5C4F47",
"s  c #5D5147",
"d  c #5D5048",
"f  c #5D5148",
"g  c #5F5149",
"h  c #5F5249",
"j  c #5E524A",
"k  c #61534A",
"l  c #60534B",
"z  c #60544B",
"x  c #60534C",
"c  c #61544C",
"v  c #62544C",
"b  c #63554C",
"n  c #62564D",
"m  c #63564E",
"M  c #64564D",
"N  c #64574D",
"B  c #64574E",
"V  c #60534A",
"C  c #64594E",
"Z  c #66584F",
"A  c #66594F",
"S  c #655950",
"D  c #665950",
"F  c #675950",
"G  c #675951",
"H  c #675A51",
"J  c #675950",
"K  c #685A51",
"L  c #695B51",
"P  c #695B52",
"I  c #6A5B52",
"U  c #695D52",
"Y  c #695C53",
"T  c #6A5C53",
"R  c #6B5C53",
"E  c #6B5D54",
"W  c #6C5D54",
"Q  c #6C5E54",
"!  c #6C5E55",
"~  c #6D5E55",
"^  c #6D5F55",
"/  c #6D5F56",
"(  c #6E5F56",
")  c #6C5D54",
"_  c #6E6056",
"`  c #6E6057",
"'  c #6F6057",
"]  c #6F6157",
"[  c #6F6357",
"{  c #6F6057",
"}  c #6F6158",
"|  c #706157",
" . c #706158",
".. c #706258",
"X. c #716259",
"o. c #716359",
"O. c #726459",
"+. c #72645A",
"@. c #73655A",
"#. c #73655B",
"$. c #74655B",
"%. c #74665B",
"&. c #75665C",
"*. c #75675C",
"=. c #716359",
"-. c #76685D",
";. c #76695D",
":. c #77695D",
">. c #77695E",
",. c #796B5F",
"<. c #7B6D61",
"1. c #7C6E61",
"2. c #7C6E62",
"3. c #7D6F62",
"4. c #7D6F63",
"5. c #7E7063",
"6. c #7F7164",
"7. c #807265",
"8. c #807265",
/* pixels */
"                                                                ",
"      O q - * , #   # 0 C e e     O   . : 0 6 2 % > ' 0 7 X     ",
"  #.u 0 :.8 8 ( ' 0 #.' ' ( ( ' < 1 7.4.,.*.r s ,.,.$ ( #.*.C X ",
"  %.0 # o.U 7.' & ' ( ' ' 8 9 + 6.' 8 8 ' ' ' ' 8 0 N U 0 8 7   ",
"  8 6 H ' ' ' ' * 0 8 8 8 8 6 ' ' ' ( k ' ' #.7.:.h 0 ' h 8 7   ",
"  m # 8 8 ( ' 8 8 7 8 8 8 7 $ ' ' ' ' ' ' 0 8 ' ' ' ' q & * 8 X ",
"  | U 8 8 8 8 8 8 X $ ' :.' ' $ ' r 8 8 8 r 0 8 0 8 8 < u 7.7.  ",
"  ' 8 0 8 8 8 8 8 o ' ' 7.5.' ' 8 ' 8 8 ' ' 8 8 8 8 1 8 8 H 7.+ ",
"  ' 8 ' % 8 8 8 % 2 ' ' 6.6.' ' # 8 8 8 ' 8 8 8 : > :.2 8 8 8 O ",
"  0 ' 7.,.0 ; 6.8 = ' ' ' ' ' ( P * > 8 r 7 @ ; 7.9 7.#.7 8 8   ",
"  8 0 ' ' ' * 7.5.1 E ' 9 8 8 8 $ ' 6.z x k ' : ' u ' 8 * - *   ",
"  8 8 8 8 8 ' ' 5.k > 8 8 8 8 # H 6.4.N o.' ' * P ( 8 8 ' ' (   ",
"  8 8 8 8 8 8 8 q 8 = o 6 8 8 X 8 8 8 5 8 8 8 8 # 8 8 7 8 m u   ",
"  ' + 8 8 8 < 7 8 8 + 8 8 8 8 2 2 = ' :.+ 8 8 : e X @ 8 9 ' E o ",
"  8 7 8 8 % 8 8 o , m 7.7.7.6.# 8 7.7.7.<.* > o.7.5.,.' % 9 7   ",
"  @ 8 8 8 w ' 2 8 *.7.' ' ' $ 8 w ' 8 8 8 = ' q P %.7.7.4.'     ",
"  1 8 7.5.' ' 4 8 ' ' ' 8 . 8 8 N 8 8 8 8 = 8 8 8 8 8 0 h r *   ",
"  . 8 u 6.7.' 2 4.4.' ' 0 8 8 ' 5.' ' :.( % 6 8 8 8 8 8 8 1     ",
"  3 6 8 q 0 1 8 ' #.' 0 ' 8 ' 7.,.' 7.7.' O ' u , - 7 8 P U '   ",
"  ; 7 8 8 8 h 7 8 8 8 8 7 8 ' ' ' 0 ' :.' 7 8 ' ' m ( * - 8 ;   ",
"  7 U :.8 m 7.P 8 8 * 8 $ 8 H ( 8 8 ' 0 o & 8 8 r m ' 7.6.o.<   ",
"  8 8 6.#.* 7.*.* H ' ' ' % 8 8 8 8 8 = U ( 8 8 8 8 ' ' ' ( @   ",
"  X 8 8 ' ' ' 8 P ' ' 6.#.' % 8 8 5 ' ' 7.7.4.' ' # 8 8 8 7 %   ",
"  *.r 8 ' r ' ( % ' o.7.6.<.' . > 7 8 ( ' ' ' ' ' ' # 8 > 8 7   ",
"  7 2 8 ( 2 u H N 6 8 ( ' ' - 8 8 C + 8 8 u U 8 ( P > 8 q %.'   ",
"  6 . 8 $ $ , 8 @ ' 2 8 8 8 2 ( ' 6.u $ 8 8 8 8 8 2 9 ' ' 7.'   ",
"  @ 8 ' 6.h P ( ( 8 # % 8 6 h P 8 ' ' r @ 8 8 8 2 9 ' 7.7.} 1 X ",
"  8 q o.' q 0 ' , 2 7.4.' $ o.a 0 8 8 ' %.4.$ # 0 ' o.7.6.1 8 @ ",
"  8 8 P ' 7.7.o.> 2 ' o.' ' > ' 8 8 % 8 8 8 U ( X 8 ( ( ' 2 8   ",
"  8 8 8 8 k ' ' . 8 8 P H 8 O H 8 1 8 8 8 8 8 8 + 8 8 8 8 8 :   ",
"    o 8 8 8 8 > 8 8 = 8 8 2   8 8   # 8 8 8 8 8 . 8 8 8 8 8 $   ",
"      7 8 8     ( 1   $ 7                 <         X - 1 : #   ",
"                                                                "
};
